PathFileType	4	(X/Y/Z)	C:\Users\chris\Documents\GitHub\baseballds\vids\pitch2_Sports2D\pitch2_Sports2D_m_person00.trc
DataRate	CameraRate	NumFrames	NumMarkers	Units	OrigDataRate	OrigDataStartFrame	OrigNumFrames
30	30	8	22	m	30	0	243
Frame#	Time	Hip			RHip			RKnee			RAnkle			RBigToe			RSmallToe			RHeel			LHip			LKnee			LAnkle			LBigToe			LSmallToe			LHeel			Neck			Head			Nose			RShoulder			RElbow			RWrist			LShoulder			LElbow			LWrist		
		X1	Y1	Z1	X2	Y2	Z2	X3	Y3	Z3	X4	Y4	Z4	X5	Y5	Z5	X6	Y6	Z6	X7	Y7	Z7	X8	Y8	Z8	X9	Y9	Z9	X10	Y10	Z10	X11	Y11	Z11	X12	Y12	Z12	X13	Y13	Z13	X14	Y14	Z14	X15	Y15	Z15	X16	Y16	Z16	X17	Y17	Z17	X18	Y18	Z18	X19	Y19	Z19	X20	Y20	Z20	X21	Y21	Z21	X22	Y22	Z22
0	0.0	0.3254215949502667	0.6191099909370024	0.0	0.3416672001154504	0.5945417640426562	0.0	0.6215198957949054	0.29290886786884274	0.0	0.7744178418630008	-0.07204469489052578	0.0	0.9809898679217453	-0.031869889337279654	0.0	0.9553927010105783	-0.06610568042064992	0.0	0.7597841673796142	-0.1471746649598213	0.0	0.34491898370473334	0.5896290500230493	0.0	0.5934944335312844	0.3109790957682	0.0	0.764273715957927	0.016242925126260868	0.0	0.955815886381231	0.05483409608068142	0.0	0.9342873751125588	0.06307649057539395	0.0	0.7234348288596278	-0.08004737777597994	0.0	0.02752575181511774	1.1790224236688331	0.0	-0.03236091545032288	1.427632705588112	0.0	0.06593271172089199	1.32761759437718	0.0	0.03766907060656661	1.0907366330917037	0.0	0.16600146858047965	0.7994083772518747	0.0	0.46801474614787836	0.6709375533527947	0.0	0.03177923015161295	1.0874871859942215	0.0	0.1660025393039819	0.7994099157744083	0.0	0.39874939147193406	0.666268845975152	0.0
1	0.03333333333333333	0.32162960908927607	0.6215906228655614	0.0	0.3409356783625348	0.5958855092388786	0.0	0.6207210738678283	0.3029964069920645	0.0	0.768601705774759	-0.05984468949610583	0.0	0.9839373713202998	-0.016211188500914114	0.0	0.9583929386133597	-0.05357515103751045	0.0	0.7553883475774602	-0.13882078476204526	0.0	0.33281980866329325	0.5897356322014906	0.0	0.5864161679449199	0.3180449717555636	0.0	0.7496961732727306	0.018422659995624726	0.0	0.9515766373292256	0.05633415898408565	0.0	0.9149897460602483	0.06807620078851447	0.0	0.7272533325630672	-0.07023681855634732	0.0	0.03350501333721813	1.1762330363176692	0.0	-0.03174280747345787	1.424154661391179	0.0	0.06586805362497418	1.3200317065812646	0.0	0.04249493147810998	1.0858181338424024	0.0	0.1586252862322601	0.8012198018333229	0.0	0.4610672255484256	0.6712038458238552	0.0	0.04504821088021139	1.0872543062644782	0.0	0.17742160250145408	0.8021589226625406	0.0	0.39963032558165146	0.6615113133195143	0.0
2	0.06666666666666667	0.32067711758129797	0.6231381819715013	0.0	0.34185050978919035	0.5959727421035699	0.0	0.620474120541201	0.30725888802555373	0.0	0.766471841699351	-0.05654401160044223	0.0	0.9830315428870894	-0.009689996773161094	0.0	0.9587525299850711	-0.048117330830657265	0.0	0.7541957451499149	-0.1355279669229693	0.0	0.32870043198340265	0.5905118642213536	0.0	0.5833599591469673	0.319430579603656	0.0	0.7432000820469088	0.01749111656333118	0.0	0.9487805194871842	0.057443499913812646	0.0	0.906606336942154	0.0708817734019017	0.0	0.7251250158728254	-0.06962338969811305	0.0	0.03564108248430955	1.1744551359420636	0.0	-0.03258546323937203	1.4194001137516121	0.0	0.0728016259434951	1.3190028532257005	0.0	0.044408214908098986	1.082033467609407	0.0	0.15630764585850088	0.8006378918720775	0.0	0.45793774824196404	0.6701715707920262	0.0	0.050505820617340845	1.0854302423065312	0.0	0.183443047383026	0.8025374020272467	0.0	0.40446352950156	0.6618391420716478	0.0
3	0.1	0.3215437592668026	0.6230983868682192	0.0	0.34282343076138916	0.5941682037947705	0.0	0.6198332477123983	0.3048961341751922	0.0	0.7678188090442446	-0.06064168093232864	0.0	0.9794695184231937	-0.013478837112582567	0.0	0.9566995659510765	-0.05162745903787884	0.0	0.7555856063501213	-0.13744127148706684	0.0	0.33212469647668	0.5915329317124881	0.0	0.5851591361884173	0.3163019400929015	0.0	0.7451008880314436	0.015220382137733128	0.0	0.9491279230413296	0.056920665840099714	0.0	0.9094050098471362	0.07067786647991027	0.0	0.7199342471875356	-0.07409017790607977	0.0	0.03334643848183151	1.17362735158197	0.0	-0.035295094925002796	1.4140342569728301	0.0	0.08854556126074566	1.3235419404508264	0.0	0.042410349493323694	1.0799683380426435	0.0	0.15941806653381047	0.7979153073705922	0.0	0.4581232448625702	0.6675310276032255	0.0	0.04727729310828192	1.0825901693292947	0.0	0.18246055377132503	0.8012839678048195	0.0	0.4108766641233332	0.6665872471169486	0.0
4	0.13333333333333333	0.3216695210063634	0.6222133922881932	0.0	0.3422477258042595	0.5918079647286034	0.0	0.617395436902196	0.30073351832362016	0.0	0.7692805094707675	-0.06388138583139845	0.0	0.9775198629396828	-0.019306258662240585	0.0	0.9546454466767816	-0.05748813269554402	0.0	0.7564565290870474	-0.14054840398122734	0.0	0.3357184250668628	0.5916583448344535	0.0	0.5886203309127603	0.3138640675226692	0.0	0.7494176880777673	0.014489045287224217	0.0	0.9528356858703632	0.053317208092563795	0.0	0.9145780096224921	0.06776519653547015	0.0	0.7201918204580273	-0.07377461109627209	0.0	0.029806990048947206	1.1736610280213118	0.0	-0.03803946697816316	1.410819740791289	0.0	0.10840970825391164	1.328743343639628	0.0	0.03924719827284657	1.079873396856238	0.0	0.16537843803440647	0.794792354690653	0.0	0.45914370445118846	0.6636113704633629	0.0	0.03953137954631672	1.0797514522324874	0.0	0.1769843159722953	0.7995272220987183	0.0	0.4133013898955842	0.6697568024161178	0.0
5	0.16666666666666666	0.32047693793391174	0.621970031308762	0.0	0.3407896360959127	0.5905774331121184	0.0	0.6136508936742939	0.298749766296559	0.0	0.7688503028252068	-0.06228890321697973	0.0	0.9791567091256225	-0.018889286954880503	0.0	0.9546780976137967	-0.05754937297541305	0.0	0.7555635393227298	-0.1412912017254735	0.0	0.33578765542853695	0.5911297016941482	0.0	0.5910072203339745	0.3134833402912028	0.0	0.7514296835850214	0.013898498499775359	0.0	0.9577497772489573	0.047133672690373454	0.0	0.9159997028019699	0.06261734378736608	0.0	0.726968279935547	-0.06918879278645437	0.0	0.029231325784786568	1.174622366663579	0.0	-0.03843583000636717	1.410760170297253	0.0	0.12536168190686647	1.3330317540985408	0.0	0.038658890748476546	1.0803203314917875	0.0	0.1708536568953538	0.7926409065302932	0.0	0.4596270266025002	0.6593018530769584	0.0	0.03349696941461843	1.077267895580526	0.0	0.17234165351465278	0.7974634629273183	0.0	0.4117734625744223	0.6680454004079658	0.0
6	0.2	0.31873865676579827	0.6221845777855349	0.0	0.3394316657881095	0.5900027010121189	0.0	0.6101915963129368	0.2976134308209995	0.0	0.7680529278564054	-0.05983742230858416	0.0	0.983173129693788	-0.014227726047678965	0.0	0.9571197800507313	-0.05334378247894969	0.0	0.7546502218675092	-0.14043132335671138	0.0	0.33575894036781184	0.5910753336391583	0.0	0.5922845394361049	0.3121667928574221	0.0	0.7516629926923153	0.010314747021821722	0.0	0.9612046386656463	0.04128992330354093	0.0	0.9166335237061324	0.05637591393333428	0.0	0.7310053413075993	-0.07019083082755671	0.0	0.03297532678075631	1.1765410341097777	0.0	-0.03655135939539166	1.411594379099536	0.0	0.13622668148022607	1.33800849804744	0.0	0.04060696939675398	1.078909884650783	0.0	0.17287644348824222	0.7918610633409224	0.0	0.4589551486596542	0.6558582890526993	0.0	0.03268261083215134	1.0755731105185689	0.0	0.1712464135756187	0.7952899758757158	0.0	0.4103832876967382	0.6640861731598029	0.0
7	0.23333333333333334	0.3169303101547566	0.6212370494392631	0.0	0.33852208374773196	0.5889881369782057	0.0	0.6075897775137739	0.2944493660771502	0.0	0.7684599473786207	-0.06152325121248202	0.0	0.9876736451406105	-0.012370965221823035	0.0	0.9607788164283678	-0.05197651290010324	0.0	0.7553311785090775	-0.14127305782835686	0.0	0.3379969957351103	0.5911146560218165	0.0	0.5929495285717269	0.30895002974752855	0.0	0.7526153118490351	0.004693977114552817	0.0	0.9628399751525899	0.038441797134410906	0.0	0.9203972593284394	0.0515310289999019	0.0	0.7276859804594793	-0.07888544647156259	0.0	0.03902824798014892	1.1795808562339134	0.0	-0.033928687712399895	1.411723314766877	0.0	0.14196543522850064	1.3428855005927538	0.0	0.04323847884159259	1.0763882707404522	0.0	0.17190099649165685	0.7916541009669446	0.0	0.45726544634627286	0.6532514335564648	0.0	0.0329278365211273	1.0750382805377083	0.0	0.16861413671773978	0.7919454722794943	0.0	0.40991518467954874	0.6593546182629082	0.0
